PathFileType	4	(X/Y/Z)	Static 1_gm.trc
DataRate	CameraRate	NumFrames	NumMarkers	Units	OrigDataRate	OrigDataStartFrame	OrigNumFrames
150	150	4	82	mm	150	67	529
Frame#	Time	P1			P2			P3			ST1			ST2			ST3			LACR1			LACR2			LACR3			LUA1			LUA2			LUA3			LUA4			LLA1			LLA2			LLA3			LLA4			LH1			LH2			LH3			RACR1			RACR2			RACR3			RUA1			RUA2			RUA3			RUA4			RLA1			RLA2			RLA3			RLA4			RH1			RH2			RH3			REL			REM			RRS			RUS			RMC3			RMCP2			RMCP3			RMCP5			RAA			RAI			RTS			RPC			RAC			RGH			C7			T8			IJ			PX			RElevationplaneH2			RShoulderElevationH2			RShoulderRotationH2			RElevationplaneH1			RShoulderElevationH1			RShoulderRotationH1			RElbowFlExt			RElbowProSupination			RWristFlExt			RWristDeviation			RScapProRetraction			RScapRotation			RScapTilting			RTrunkFlExt			RTrunkLateralFl			RTrunkAxialRotation			RH2SAG_Flexion			RH2SAG_Abduction			RH2SAG_Rotation			RH2FRONT_Abduction			RH2FRONT_Flexion			RH2FRONT_Rotation			RH1SAG_Flexion			RH1SAG_Abduction			RH1SAG_Rotation			RH1FRONT_Abduction			RH1FRONT_Flexion			RH1FRONT_Rotation			REB			HWM		
		X1	Y1	Z1	X2	Y2	Z2	X3	Y3	Z3	X4	Y4	Z4	X5	Y5	Z5	X6	Y6	Z6	X7	Y7	Z7	X8	Y8	Z8	X9	Y9	Z9	X10	Y10	Z10	X11	Y11	Z11	X12	Y12	Z12	X13	Y13	Z13	X14	Y14	Z14	X15	Y15	Z15	X16	Y16	Z16	X17	Y17	Z17	X18	Y18	Z18	X19	Y19	Z19	X20	Y20	Z20	X21	Y21	Z21	X22	Y22	Z22	X23	Y23	Z23	X24	Y24	Z24	X25	Y25	Z25	X26	Y26	Z26	X27	Y27	Z27	X28	Y28	Z28	X29	Y29	Z29	X30	Y30	Z30	X31	Y31	Z31	X32	Y32	Z32	X33	Y33	Z33	X34	Y34	Z34	X35	Y35	Z35	X36	Y36	Z36	X37	Y37	Z37	X38	Y38	Z38	X39	Y39	Z39	X40	Y40	Z40	X41	Y41	Z41	X42	Y42	Z42	X43	Y43	Z43	X44	Y44	Z44	X45	Y45	Z45	X46	Y46	Z46	X47	Y47	Z47	X48	Y48	Z48	X49	Y49	Z49	X50	Y50	Z50	X51	Y51	Z51	X52	Y52	Z52	X53	Y53	Z53	X54	Y54	Z54	X55	Y55	Z55	X56	Y56	Z56	X57	Y57	Z57	X58	Y58	Z58	X59	Y59	Z59	X60	Y60	Z60	X61	Y61	Z61	X62	Y62	Z62	X63	Y63	Z63	X64	Y64	Z64	X65	Y65	Z65	X66	Y66	Z66	X67	Y67	Z67	X68	Y68	Z68	X69	Y69	Z69	X70	Y70	Z70	X71	Y71	Z71	X72	Y72	Z72	X73	Y73	Z73	X74	Y74	Z74	X75	Y75	Z75	X76	Y76	Z76	X77	Y77	Z77	X78	Y78	Z78	X79	Y79	Z79	X80	Y80	Z80	X81	Y81	Z81	X82	Y82	Z82
	
67	0.440000	337.740234	1637.617432	-785.185120	246.319672	1706.460327	-774.968567	193.520432	1603.329468	-781.712830	326.371735	1167.355469	-26.949453	348.385986	1114.155151	5.494504	328.969940	1166.211304	29.219976	273.977661	1267.825317	-212.656967	183.260513	1229.817261	-149.122589	214.165009	1170.930298	-237.463379	229.150635	1076.334229	-215.274353	247.667038	1008.458740	-215.934021	286.203522	1026.638916	-195.710678	281.376038	1101.799316	-195.487808	445.398560	737.528198	-199.636841	515.025635	747.785339	-264.384033	547.672119	823.389160	-159.328918	458.006226	772.113037	-141.839188	530.269592	703.362183	-191.369690	579.888733	701.301270	-176.518509	543.305664	726.665588	-148.266281	286.871857	1256.071411	238.720261	240.828491	1158.939087	264.522095	204.202042	1217.786133	174.425003	306.865631	1067.058350	217.760696	316.682648	1005.989136	214.600754	262.826172	989.467407	233.813278	254.818268	1056.941650	234.494278	470.297089	779.380859	154.519791	565.857361	817.409973	155.150314	537.603088	738.486938	254.133377	458.347198	730.249878	196.140762	553.401978	728.239319	128.947571	591.235901	708.130676	154.097595	543.182983	698.273682	178.482056	330.128815	853.422913	229.534180	287.668457	838.395264	185.600357	520.822205	721.740967	122.679672	520.793701	715.825012	172.033997	559.537659	708.077332	151.118683	603.741821	704.478333	122.902023	606.964783	694.832031	149.954193	580.165649	668.695190	172.628265	189.081314	1160.412842	145.745911	156.385147	1036.544312	105.300873	174.190948	1176.367676	78.384926	291.617432	1155.477661	131.426376	266.360474	1187.473511	170.314346	264.960968	1144.008789	156.901825	195.692963	1253.173218	3.061367	151.279526	1097.139038	16.267454	300.186005	1176.230103	3.009354	353.011108	1009.291748	2.189822	0.000000	0.000000	40.979801	0.000000	0.000000	-10.047629	0.000000	0.000000	-19.354595	0.000000	0.000000	40.979801	0.000000	0.000000	-10.047629	0.000000	0.000000	1.213462	0.000000	0.000000	49.740307	0.000000	0.000000	138.682465	0.000000	0.000000	-16.598141	0.000000	0.000000	4.817425	0.000000	0.000000	10.507916	0.000000	0.000000	15.485798	0.000000	0.000000	-11.046959	0.000000	0.000000	0.260316	0.000000	0.000000	-0.190706	0.000000	0.000000	-0.112128	0.000000	0.000000	6.627829	0.000000	0.000000	-7.568539	0.000000	0.000000	22.064085	0.000000	0.000000	-7.618865	0.000000	0.000000	6.569831	0.000000	0.000000	21.187275	0.000000	0.000000	6.627829	0.000000	0.000000	-7.568539	0.000000	0.000000	42.632141	0.000000	0.000000	-7.618865	0.000000	0.000000	6.569831	0.000000	0.000000	41.755333	308.898621	845.909058	207.567261	520.807983	718.782959	147.356842
68	0.446667	337.640442	1637.652222	-785.343994	246.202347	1706.489014	-775.138245	193.428543	1603.344360	-781.920410	326.383514	1167.382935	-26.949287	348.408112	1114.207275	5.522834	329.000702	1166.252075	29.197184	274.327271	1267.875244	-212.697342	183.061783	1230.011230	-149.328964	214.186920	1170.928467	-237.520081	229.148605	1076.338501	-215.271622	247.660019	1008.459351	-215.922485	286.232361	1026.604614	-195.734238	281.394867	1101.818970	-195.515640	445.393707	737.521912	-199.634415	515.023193	747.775879	-264.388153	547.671814	823.371094	-159.323608	457.998077	772.092773	-141.861771	530.266052	703.361389	-191.354858	579.896423	701.312561	-176.515457	543.327087	726.648743	-148.271927	286.895569	1256.080566	238.687180	240.851151	1158.945312	264.496490	204.243164	1217.782959	174.416885	306.866211	1067.057617	217.759598	316.687439	1005.999695	214.591034	262.811523	989.464844	233.779877	254.838943	1056.976318	234.477600	470.278412	779.339417	154.543900	565.848816	817.447632	155.130280	537.647278	738.519287	254.171402	458.370453	730.256897	196.144211	553.424622	728.240417	128.923447	591.233398	708.136353	154.129395	543.179565	698.295654	178.509094	330.083130	853.420349	229.488403	287.630371	838.414612	185.539749	520.844543	721.737000	122.701950	520.825684	715.834961	172.057953	559.544250	708.085022	151.131592	603.761536	704.459167	122.938995	606.970703	694.834473	150.000473	580.158264	668.718384	172.682816	189.112427	1160.409668	145.726883	156.419037	1036.537354	105.291084	174.222672	1176.358887	78.364449	291.648834	1155.475220	131.409073	266.390778	1187.473633	170.294205	264.992249	1144.007935	156.885056	195.705383	1253.201294	3.034985	151.308746	1097.170654	16.339485	300.205231	1176.267334	3.003540	353.045013	1009.333252	2.267102	0.000000	0.000000	41.035427	0.000000	0.000000	-10.006585	0.000000	0.000000	-19.458874	0.000000	0.000000	41.035427	0.000000	0.000000	-10.006585	0.000000	0.000000	1.128269	0.000000	0.000000	49.748943	0.000000	0.000000	138.722641	0.000000	0.000000	-16.584251	0.000000	0.000000	4.844985	0.000000	0.000000	10.494316	0.000000	0.000000	15.513839	0.000000	0.000000	-11.045527	0.000000	0.000000	0.227744	0.000000	0.000000	-0.185671	0.000000	0.000000	-0.099432	0.000000	0.000000	6.607747	0.000000	0.000000	-7.531362	0.000000	0.000000	22.011944	0.000000	0.000000	-7.581141	0.000000	0.000000	6.550493	0.000000	0.000000	21.142082	0.000000	0.000000	6.607747	0.000000	0.000000	-7.531362	0.000000	0.000000	42.599087	0.000000	0.000000	-7.581141	0.000000	0.000000	6.550493	0.000000	0.000000	41.729225	308.856750	845.917480	207.514069	520.835083	718.786011	147.379944
69	0.453333	337.509094	1637.677124	-785.510864	246.102112	1706.528931	-775.312195	193.314758	1603.379639	-782.124695	326.394104	1167.347900	-26.986446	348.406677	1114.184570	5.456948	329.023956	1166.254883	29.216516	274.549530	1267.854126	-212.537170	183.329636	1229.805420	-149.184174	214.189957	1170.916260	-237.500534	229.157242	1076.307373	-215.320282	247.687714	1008.450439	-215.944443	286.223206	1026.628784	-195.771545	281.454498	1101.811157	-195.510406	445.418335	737.553345	-199.647522	515.070007	747.794006	-264.402924	547.672546	823.393921	-159.301315	458.022003	772.080383	-141.879608	530.281860	703.372314	-191.360321	579.901794	701.304504	-176.502457	543.332825	726.670471	-148.277283	286.919189	1256.070923	238.681274	240.851562	1158.975952	264.492249	204.260300	1217.806763	174.343094	306.875519	1067.035522	217.762009	316.682648	1006.006348	214.590958	262.810272	989.459412	233.778397	254.834320	1056.992676	234.466888	470.291290	779.329956	154.511459	565.865845	817.450195	155.139923	537.624878	738.532593	254.153305	458.394257	730.267456	196.149765	553.441833	728.230103	128.908310	591.233459	708.117493	154.140076	543.203857	698.296326	178.486801	330.058441	853.413391	229.501511	287.610168	838.411194	185.547348	520.872742	721.731873	122.703201	520.840759	715.837158	172.060074	559.558350	708.075500	151.122391	603.782288	704.440552	122.941292	606.983521	694.819153	150.004913	580.162415	668.709412	172.684204	189.143509	1160.424194	145.687256	156.430191	1036.553223	105.263680	174.285355	1176.364014	78.315613	291.684174	1155.457031	131.411499	266.419922	1187.470703	170.279999	265.014069	1144.002563	156.879150	195.753174	1253.231934	3.094260	151.308304	1097.215088	16.399025	300.225800	1176.261108	2.997406	353.006195	1009.308533	2.209224	0.000000	0.000000	41.002422	0.000000	0.000000	-10.022923	0.000000	0.000000	-19.460472	0.000000	0.000000	41.002422	0.000000	0.000000	-10.022923	0.000000	0.000000	1.123087	0.000000	0.000000	49.765446	0.000000	0.000000	138.731628	0.000000	0.000000	-16.573915	0.000000	0.000000	4.862986	0.000000	0.000000	10.441265	0.000000	0.000000	15.492576	0.000000	0.000000	-11.048697	0.000000	0.000000	0.236003	0.000000	0.000000	-0.206033	0.000000	0.000000	-0.069804	0.000000	0.000000	6.614318	0.000000	0.000000	-7.547406	0.000000	0.000000	21.978704	0.000000	0.000000	-7.597389	0.000000	0.000000	6.556762	0.000000	0.000000	21.106125	0.000000	0.000000	6.614318	0.000000	0.000000	-7.547406	0.000000	0.000000	42.562263	0.000000	0.000000	-7.597389	0.000000	0.000000	6.556762	0.000000	0.000000	41.689686	308.834290	845.912292	207.524429	520.856750	718.784546	147.381638
70	0.460000	337.386932	1637.717529	-785.701416	245.964569	1706.556396	-775.509460	193.195465	1603.406128	-782.341125	326.447998	1167.356445	-27.009399	348.423828	1114.162109	5.445258	329.056152	1166.257935	29.183176	274.543274	1267.834839	-212.535980	183.337860	1229.810669	-149.176788	214.219254	1170.904175	-237.510712	229.175705	1076.305298	-215.312164	247.684372	1008.461670	-215.968170	286.227234	1026.629272	-195.743256	281.424561	1101.817261	-195.531219	445.461670	737.534668	-199.637070	515.075012	747.783691	-264.422607	547.688110	823.368835	-159.311508	458.026276	772.067810	-141.863022	530.312683	703.344604	-191.359772	579.911560	701.279053	-176.533844	543.331726	726.650208	-148.289536	286.949310	1256.087402	238.661285	240.880035	1158.968384	264.464294	204.285126	1217.799072	174.370193	306.908386	1067.057251	217.721939	316.712341	1006.012573	214.561676	262.823853	989.479675	233.762726	254.841232	1056.968750	234.456192	470.294617	779.353882	154.482071	565.838745	817.423157	155.163483	537.624634	738.533630	254.147827	458.364105	730.265015	196.145950	553.425903	728.256653	128.938889	591.278015	708.109192	154.111053	543.210815	698.293030	178.478760	330.099579	853.424622	229.477142	287.643280	838.415405	185.533142	520.858643	721.732483	122.698174	520.822021	715.835266	172.054733	559.566895	708.084167	151.119278	603.768799	704.458313	122.902481	606.986206	694.810852	149.954880	580.171692	668.690430	172.629776	189.154480	1160.429565	145.688690	156.442383	1036.560547	105.257973	174.276428	1176.376709	78.323166	291.691772	1155.474365	131.384399	266.434906	1187.480469	170.263901	265.029724	1144.014038	156.857819	195.848099	1253.309448	3.011303	151.306732	1097.318970	16.303410	300.275818	1176.277588	2.959770	352.959045	1009.294128	2.198978	0.000000	0.000000	41.192154	0.000000	0.000000	-10.047160	0.000000	0.000000	-19.626551	0.000000	0.000000	41.192154	0.000000	0.000000	-10.047160	0.000000	0.000000	0.964892	0.000000	0.000000	49.750496	0.000000	0.000000	138.712158	0.000000	0.000000	-16.554375	0.000000	0.000000	4.807531	0.000000	0.000000	10.490038	0.000000	0.000000	15.494175	0.000000	0.000000	-11.005259	0.000000	0.000000	0.234078	0.000000	0.000000	-0.239388	0.000000	0.000000	-0.093315	0.000000	0.000000	6.655494	0.000000	0.000000	-7.543627	0.000000	0.000000	22.004866	0.000000	0.000000	-7.594213	0.000000	0.000000	6.597635	0.000000	0.000000	21.127243	0.000000	0.000000	6.655494	0.000000	0.000000	-7.543627	0.000000	0.000000	42.596310	0.000000	0.000000	-7.594213	0.000000	0.000000	6.597635	0.000000	0.000000	41.718685	308.871429	845.920044	207.505142	520.840332	718.783875	147.376450
